{"title":"Watamote","uid":10740264,"size":845454719,"categoryP":"video","categoryS":"tv_shows","magnet":"?xt=urn:btih:e44d0477637aea8bb05c045a239d077ee2a7075b&amp;dn=Watamote&amp;tr=udp%3A%2F%2Ftracker.openbittorrent.com%3A80&amp;tr=udp%3A%2F%2Fopen.demonii.com%3A1337&amp;tr=udp%3A%2F%2Ftracker.coppersurfer.tk%3A6969&amp;tr=udp%3A%2F%2Fexodus.desync.com%3A6969","seeders":1,"leechers":0,"uploader":"p7trick","files":-1,"time":1407742963,"description":"justdubs\n\nWatamote eps 1-12 ENGLISH DUBBED\n_________________________________________________________\n\nFormat                                   : MPEG-4\nFormat profile                           : Base Media\nCodec ID                                 : isom\nFile size                                : 67.3 MiB\nDuration                                 : 25mn 52s\nOverall bit rate mode                    : Variable\nOverall bit rate                         : 363 Kbps\nEncoded date                             : UTC 2014-07-26 20:13:05\nTagged date                              : UTC 2014-07-26 20:13:05\n\nVideo\nID                                       : 1\nFormat                                   : AVC\nFormat/Info                              : Advanced Video Codec\nFormat profile                           : &lt;a class=&quot;__cf_email__&quot; href=&quot;/cdn-cgi/l/email-protection&quot; data-cfemail=&quot;2e664749466e621d001e&quot;&gt;[email&amp;#160;protected]&lt;/a&gt;&lt;script cf-hash='f9e31' type=&quot;text/javascript&quot;&gt;\n/* &lt;![CDATA[ */!function(){try{var t=&quot;currentScript&quot;in document?document.currentScript:function(){for(var t=document.getElementsByTagName(&quot;script&quot;),e=t.length;e--;)if(t[e].getAttribute(&quot;cf-hash&quot;))return t[e]}();if(t&amp;&amp;t.previousSibling){var e,r,n,i,c=t.previousSibling,a=c.getAttribute(&quot;data-cfemail&quot;);if(a){for(e=&quot;&quot;,r=parseInt(a.substr(0,2),16),n=2;a.length-n;n+=2)i=parseInt(a.substr(n,2),16)^r,e+=String.fromCharCode(i);e=document.createTextNode(e),c.parentNode.replaceChild(e,c)}}}catch(u){}}();/* ]]&gt; */&lt;/script&gt;\nFormat settings, CABAC                   : Yes\nFormat settings, ReFrames                : 6 frames\nCodec ID                                 : avc1\nCodec ID/Info                            : Advanced Video Coding\nDuration                                 : 25mn 52s\nBit rate mode                            : Variable\nBit rate                                 : 300 Kbps\nMaximum bit rate                         : 3 656 Kbps\nWidth                                    : 640 pixels\nHeight                                   : 360 pixels\nDisplay aspect ratio                     : 16:9\nFrame rate mode                          : Constant\nFrame rate                               : 29.970 fps\nColor space                              : YUV\nChroma subsampling                       : 4:2:0\nBit depth                                : 8 bits\nScan type                                : Progressive\nBits/(Pixel*Frame)                       : 0.043\nStream size                              : 55.6 MiB (83%)\n\nAudio\nID                                       : 2\nFormat                                   : AAC\nFormat/Info                              : Advanced Audio Codec\nFormat profile                           : HE-AAC / LC\nCodec ID                                 : 40\nDuration                                 : 25mn 52s\nBit rate mode                            : Variable\nBit rate                                 : 59.4 Kbps\nMaximum bit rate                         : 95.0 Kbps\nChannel(s)                               : 2 channels\nChannel positions                        : Front: L R\nSampling rate                            : 44.1 KHz / 22.05 KHz\nCompression mode                         : Lossy\nStream size                              : 11.0 MiB (16%)\nLanguage                                 : English\n_________________________________________________________\n\nSummary:\nKuroki Tomoko is a super popular, high school girl, who has had 50 years of dating experience, and 100 boys... in the Otome game world. In the real world, she is a 15 year old shut in, who has all of the qualities of a mojo (a gloomy or unpopular woman).\n\nHowever, when school isn't going as she expected, and she isn't as popular as she had thought she was, she takes a look at herself in the mirror for the first time in a few years, and has some shocking revelations...\n\n\nTwitter - @p7tricktorrent\nFacebook - /p7tricktorrent\nTPB - /user/p7trick/\nKAT - /user/iPirate7\n_________________________________________________________\n\nSEED!\n\nshare ratio:\n&quot;Scumbag = 0.1:1\nLeecher = 0.999:1\nMinimum = 1:1\nGood = 3:1\nGreat = 5:1\nAwesome = 10:1\n1337 = 100:1&quot;\t","torrent":{"xt":"urn:btih:e44d0477637aea8bb05c045a239d077ee2a7075b","amp;dn":"Watamote","amp;tr":["udp%3A%2F%2Ftracker.openbittorrent.com%3A80","udp%3A%2F%2Fopen.demonii.com%3A1337","udp%3A%2F%2Ftracker.coppersurfer.tk%3A6969","udp%3A%2F%2Fexodus.desync.com%3A6969"],"infoHash":"e44d0477637aea8bb05c045a239d077ee2a7075b","infoHashBuffer":{"type":"Buffer","data":[228,77,4,119,99,122,234,139,176,92,4,90,35,157,7,126,226,167,7,91]},"announce":[],"urlList":[]}}